<svg xmlns="http://www.w3.org/2000/svg" xmlns:xlink="http://www.w3.org/1999/xlink" contentStyleType="text/css" data-diagram-type="ACTIVITY" height="416px" preserveAspectRatio="none" style="width:335px;height:416px;background:#FFFFFF;" version="1.1" viewBox="0 0 335 416" width="335px" zoomAndPan="magnify"><defs/><g><ellipse cx="170.2212" cy="20" fill="#222222" rx="10" ry="10" style="stroke:#222222;stroke-width:1;"/><rect fill="#F1F1F1" height="33.9688" rx="12.5" ry="12.5" style="stroke:#181818;stroke-width:0.5;" width="153.3184" x="93.562" y="50"/><text fill="#000000" font-family="sans-serif" font-size="12" lengthAdjust="spacing" textLength="133.3184" x="103.562" y="71.1387">User enters login data</text><rect fill="#F1F1F1" height="33.9688" rx="12.5" ry="12.5" style="stroke:#181818;stroke-width:0.5;" width="214.9941" x="62.7241" y="103.9688"/><text fill="#000000" font-family="sans-serif" font-size="12" lengthAdjust="spacing" textLength="194.9941" x="72.7241" y="125.1074">System checks data in database</text><polygon fill="#F1F1F1" points="139.4851,157.9375,200.9573,157.9375,212.9573,169.9375,200.9573,181.9375,139.4851,181.9375,127.4851,169.9375,139.4851,157.9375" style="stroke:#181818;stroke-width:0.5;"/><text fill="#000000" font-family="sans-serif" font-size="11" lengthAdjust="spacing" textLength="61.4722" x="139.4851" y="173.7456">Valid data?</text><text fill="#000000" font-family="sans-serif" font-size="11" lengthAdjust="spacing" textLength="19.0083" x="108.4768" y="167.3433">yes</text><text fill="#000000" font-family="sans-serif" font-size="11" lengthAdjust="spacing" textLength="13.7017" x="212.9573" y="167.3433">no</text><rect fill="#F1F1F1" height="33.9688" rx="12.5" ry="12.5" style="stroke:#181818;stroke-width:0.5;" width="140.3926" x="16.7334" y="191.9375"/><text fill="#000000" font-family="sans-serif" font-size="12" lengthAdjust="spacing" textLength="120.3926" x="26.7334" y="213.0762">Generate JWT token</text><rect fill="#F1F1F1" height="33.9688" rx="12.5" ry="12.5" style="stroke:#181818;stroke-width:0.5;" width="135.0488" x="19.4053" y="245.9063"/><text fill="#000000" font-family="sans-serif" font-size="12" lengthAdjust="spacing" textLength="115.0488" x="29.4053" y="267.0449">Send token to User</text><rect fill="#F1F1F1" height="33.9688" rx="12.5" ry="12.5" style="stroke:#181818;stroke-width:0.5;" width="151.8594" x="11" y="299.875"/><text fill="#000000" font-family="sans-serif" font-size="12" lengthAdjust="spacing" textLength="131.8594" x="21" y="321.0137">Proceed to dashboard</text><rect fill="#F1F1F1" height="33.9688" rx="12.5" ry="12.5" style="stroke:#181818;stroke-width:0.5;" width="141.3066" x="182.8594" y="191.9375"/><text fill="#000000" font-family="sans-serif" font-size="12" lengthAdjust="spacing" textLength="121.3066" x="192.8594" y="213.0762">Send error message</text><polygon fill="#F1F1F1" points="170.2212,339.8438,182.2212,351.8438,170.2212,363.8438,158.2212,351.8438,170.2212,339.8438" style="stroke:#181818;stroke-width:0.5;"/><ellipse cx="170.2212" cy="394.8438" fill="none" rx="11" ry="11" style="stroke:#222222;stroke-width:1;"/><ellipse cx="170.2212" cy="394.8438" fill="#222222" rx="6" ry="6" style="stroke:#222222;stroke-width:1;"/><line style="stroke:#181818;stroke-width:1;" x1="170.2212" x2="170.2212" y1="30" y2="50"/><polygon fill="#181818" points="166.2212,40,170.2212,50,174.2212,40,170.2212,44" style="stroke:#181818;stroke-width:1;"/><line style="stroke:#181818;stroke-width:1;" x1="170.2212" x2="170.2212" y1="83.9688" y2="103.9688"/><polygon fill="#181818" points="166.2212,93.9688,170.2212,103.9688,174.2212,93.9688,170.2212,97.9688" style="stroke:#181818;stroke-width:1;"/><line style="stroke:#181818;stroke-width:1;" x1="86.9297" x2="86.9297" y1="225.9063" y2="245.9063"/><polygon fill="#181818" points="82.9297,235.9063,86.9297,245.9063,90.9297,235.9063,86.9297,239.9063" style="stroke:#181818;stroke-width:1;"/><line style="stroke:#181818;stroke-width:1;" x1="86.9297" x2="86.9297" y1="279.875" y2="299.875"/><polygon fill="#181818" points="82.9297,289.875,86.9297,299.875,90.9297,289.875,86.9297,293.875" style="stroke:#181818;stroke-width:1;"/><line style="stroke:#181818;stroke-width:1;" x1="127.4851" x2="86.9297" y1="169.9375" y2="169.9375"/><line style="stroke:#181818;stroke-width:1;" x1="86.9297" x2="86.9297" y1="169.9375" y2="191.9375"/><polygon fill="#181818" points="82.9297,181.9375,86.9297,191.9375,90.9297,181.9375,86.9297,185.9375" style="stroke:#181818;stroke-width:1;"/><line style="stroke:#181818;stroke-width:1;" x1="212.9573" x2="253.5127" y1="169.9375" y2="169.9375"/><line style="stroke:#181818;stroke-width:1;" x1="253.5127" x2="253.5127" y1="169.9375" y2="191.9375"/><polygon fill="#181818" points="249.5127,181.9375,253.5127,191.9375,257.5127,181.9375,253.5127,185.9375" style="stroke:#181818;stroke-width:1;"/><line style="stroke:#181818;stroke-width:1;" x1="86.9297" x2="86.9297" y1="333.8438" y2="351.8438"/><line style="stroke:#181818;stroke-width:1;" x1="86.9297" x2="158.2212" y1="351.8438" y2="351.8438"/><polygon fill="#181818" points="148.2212,347.8438,158.2212,351.8438,148.2212,355.8438,152.2212,351.8438" style="stroke:#181818;stroke-width:1;"/><line style="stroke:#181818;stroke-width:1;" x1="253.5127" x2="253.5127" y1="225.9063" y2="351.8438"/><line style="stroke:#181818;stroke-width:1;" x1="253.5127" x2="182.2212" y1="351.8438" y2="351.8438"/><polygon fill="#181818" points="192.2212,347.8438,182.2212,351.8438,192.2212,355.8438,188.2212,351.8438" style="stroke:#181818;stroke-width:1;"/><line style="stroke:#181818;stroke-width:1;" x1="170.2212" x2="170.2212" y1="137.9375" y2="157.9375"/><polygon fill="#181818" points="166.2212,147.9375,170.2212,157.9375,174.2212,147.9375,170.2212,151.9375" style="stroke:#181818;stroke-width:1;"/><line style="stroke:#181818;stroke-width:1;" x1="170.2212" x2="170.2212" y1="363.8438" y2="383.8438"/><polygon fill="#181818" points="166.2212,373.8438,170.2212,383.8438,174.2212,373.8438,170.2212,377.8438" style="stroke:#181818;stroke-width:1;"/><!--SRC=[FSwx3eCm30NGFL_X4Nw131qhTQf47xCX5uY0fBAzyFS4MdMnv7FbXngBkUQf448oYDAInvWeiB5tJRkfOQL-GZ_hYVGBErPu5mUgNhp4SDgb9fkGgDgWjIDghaWGDj3j_I3BCv8_k4KAtxPKEewVV9VS0qTIjkdKPPRW7HO5LIdN_qc8PA4LgZoM7mh5mQdbpmu0]--></g></svg>