<svg xmlns="http://www.w3.org/2000/svg" xmlns:xlink="http://www.w3.org/1999/xlink" contentStyleType="text/css" data-diagram-type="DESCRIPTION" height="482px" preserveAspectRatio="none" style="width:497px;height:482px;background:#FFFFFF;" version="1.1" viewBox="0 0 497 482" width="497px" zoomAndPan="magnify"><defs/><g><!--cluster Frontend--><g id="cluster_Frontend"><path d="M201.5,6 L274.7285,6 A3.75,3.75 0 0 1 277.2285,8.5 L284.2285,28.2969 L318.5,28.2969 A2.5,2.5 0 0 1 321,30.7969 L321,116.8 A2.5,2.5 0 0 1 318.5,119.3 L201.5,119.3 A2.5,2.5 0 0 1 199,116.8 L199,8.5 A2.5,2.5 0 0 1 201.5,6 " fill="none" style="stroke:#000000;stroke-width:1.5;"/><line style="stroke:#000000;stroke-width:1.5;" x1="199" x2="284.2285" y1="28.2969" y2="28.2969"/><text fill="#000000" font-family="sans-serif" font-size="14" font-weight="bold" lengthAdjust="spacing" textLength="72.2285" x="203" y="20.9951">Frontend</text></g><!--cluster Backend--><g id="cluster_Backend"><path d="M20.5,184.3 L88.7109,184.3 A3.75,3.75 0 0 1 91.2109,186.8 L98.2109,206.5969 L318.5,206.5969 A2.5,2.5 0 0 1 321,209.0969 L321,295.09 A2.5,2.5 0 0 1 318.5,297.59 L20.5,297.59 A2.5,2.5 0 0 1 18,295.09 L18,186.8 A2.5,2.5 0 0 1 20.5,184.3 " fill="none" style="stroke:#000000;stroke-width:1.5;"/><line style="stroke:#000000;stroke-width:1.5;" x1="18" x2="98.2109" y1="206.5969" y2="206.5969"/><text fill="#000000" font-family="sans-serif" font-size="14" font-weight="bold" lengthAdjust="spacing" textLength="67.2109" x="22" y="199.2951">Backend</text></g><!--cluster Database--><g id="cluster_Database"><path d="M8.5,362.59 L84.0049,362.59 A3.75,3.75 0 0 1 86.5049,365.09 L93.5049,384.8869 L209.5,384.8869 A2.5,2.5 0 0 1 212,387.3869 L212,473.39 A2.5,2.5 0 0 1 209.5,475.89 L8.5,475.89 A2.5,2.5 0 0 1 6,473.39 L6,365.09 A2.5,2.5 0 0 1 8.5,362.59 " fill="none" style="stroke:#000000;stroke-width:1.5;"/><line style="stroke:#000000;stroke-width:1.5;" x1="6" x2="93.5049" y1="384.8869" y2="384.8869"/><text fill="#000000" font-family="sans-serif" font-size="14" font-weight="bold" lengthAdjust="spacing" textLength="74.5049" x="10" y="377.5851">Database</text></g><!--cluster External Services--><g id="cluster_External Services"><path d="M299.5,370.59 L437.8066,370.59 A3.75,3.75 0 0 1 440.3066,373.09 L447.3066,392.8869 L447.5,392.8869 A2.5,2.5 0 0 1 450,395.3869 L450,465.39 A2.5,2.5 0 0 1 447.5,467.89 L299.5,467.89 A2.5,2.5 0 0 1 297,465.39 L297,373.09 A2.5,2.5 0 0 1 299.5,370.59 " fill="none" style="stroke:#000000;stroke-width:1.5;"/><line style="stroke:#000000;stroke-width:1.5;" x1="297" x2="447.3066" y1="392.8869" y2="392.8869"/><text fill="#000000" font-family="sans-serif" font-size="14" font-weight="bold" lengthAdjust="spacing" textLength="137.3066" x="301" y="385.5851">External Services</text></g><!--entity UI--><g id="elem_UI"><rect fill="#F1F1F1" height="46.2969" rx="2.5" ry="2.5" style="stroke:#181818;stroke-width:0.5;" width="54.376" x="222.81" y="49"/><rect fill="#F1F1F1" height="10" style="stroke:#181818;stroke-width:0.5;" width="15" x="257.186" y="54"/><rect fill="#F1F1F1" height="2" style="stroke:#181818;stroke-width:0.5;" width="4" x="255.186" y="56"/><rect fill="#F1F1F1" height="2" style="stroke:#181818;stroke-width:0.5;" width="4" x="255.186" y="60"/><text fill="#000000" font-family="sans-serif" font-size="14" lengthAdjust="spacing" textLength="14.376" x="237.81" y="81.9951">UI</text></g><!--entity API--><g id="elem_API"><rect fill="#F1F1F1" height="46.2969" rx="2.5" ry="2.5" style="stroke:#181818;stroke-width:0.5;" width="62.1484" x="41.93" y="227.3"/><rect fill="#F1F1F1" height="10" style="stroke:#181818;stroke-width:0.5;" width="15" x="84.0784" y="232.3"/><rect fill="#F1F1F1" height="2" style="stroke:#181818;stroke-width:0.5;" width="4" x="82.0784" y="234.3"/><rect fill="#F1F1F1" height="2" style="stroke:#181818;stroke-width:0.5;" width="4" x="82.0784" y="238.3"/><text fill="#000000" font-family="sans-serif" font-size="14" lengthAdjust="spacing" textLength="22.1484" x="56.93" y="260.2951">API</text></g><!--entity BusinessLogic--><g id="elem_BusinessLogic"><rect fill="#F1F1F1" height="46.2969" rx="2.5" ry="2.5" style="stroke:#181818;stroke-width:0.5;" width="138.5742" x="138.71" y="227.3"/><rect fill="#F1F1F1" height="10" style="stroke:#181818;stroke-width:0.5;" width="15" x="257.2842" y="232.3"/><rect fill="#F1F1F1" height="2" style="stroke:#181818;stroke-width:0.5;" width="4" x="255.2842" y="234.3"/><rect fill="#F1F1F1" height="2" style="stroke:#181818;stroke-width:0.5;" width="4" x="255.2842" y="238.3"/><text fill="#000000" font-family="sans-serif" font-size="14" lengthAdjust="spacing" textLength="98.5742" x="153.71" y="260.2951">BusinessLogic</text></g><!--entity SQL Database--><g id="elem_SQL Database"><rect fill="#F1F1F1" height="46.2969" rx="2.5" ry="2.5" style="stroke:#181818;stroke-width:0.5;" width="138.957" x="29.52" y="405.59"/><rect fill="#F1F1F1" height="10" style="stroke:#181818;stroke-width:0.5;" width="15" x="148.477" y="410.59"/><rect fill="#F1F1F1" height="2" style="stroke:#181818;stroke-width:0.5;" width="4" x="146.477" y="412.59"/><rect fill="#F1F1F1" height="2" style="stroke:#181818;stroke-width:0.5;" width="4" x="146.477" y="416.59"/><text fill="#000000" font-family="sans-serif" font-size="14" lengthAdjust="spacing" textLength="98.957" x="44.52" y="438.5851">SQL Database</text></g><!--entity Cloudinary--><g id="elem_Cloudinary"><rect fill="#F1F1F1" height="46.2969" rx="2.5" ry="2.5" style="stroke:#181818;stroke-width:0.5;" width="115.373" x="315.31" y="405.59"/><rect fill="#F1F1F1" height="10" style="stroke:#181818;stroke-width:0.5;" width="15" x="410.683" y="410.59"/><rect fill="#F1F1F1" height="2" style="stroke:#181818;stroke-width:0.5;" width="4" x="408.683" y="412.59"/><rect fill="#F1F1F1" height="2" style="stroke:#181818;stroke-width:0.5;" width="4" x="408.683" y="416.59"/><text fill="#000000" font-family="sans-serif" font-size="14" lengthAdjust="spacing" textLength="75.373" x="330.31" y="438.5851">Cloudinary</text></g><!--link Frontend to Backend--><!--link Backend to Database--><!--link Backend to Cloudinary--><!--SRC=[ROxB2i8m44Nt-Oh1VN_0XM1zWD25KboLBiPaQ89jKlBmWVZl1ccebQxcClSUE3toApO4YxqrsfCM2tWnWEfygDcRiJxLUGnZkpx6EjuyEAN9kS8qYa-1BNgyeAE1A4y5fDTqk7juiXfRACdU52St49lM1A4qskTtd_mWgwGIWdIThM2mWYLmqtL1AuwU77XfJMWaH4sM9hzO4lddxihBMM1qcKC-]--></g></svg>