<svg xmlns="http://www.w3.org/2000/svg" xmlns:xlink="http://www.w3.org/1999/xlink" contentStyleType="text/css" data-diagram-type="DESCRIPTION" height="158px" preserveAspectRatio="none" style="width:2252px;height:158px;background:#FFFFFF;" version="1.1" viewBox="0 0 2252 158" width="2252px" zoomAndPan="magnify"><defs/><g><!--entity User--><g id="elem_User"><ellipse cx="21.9551" cy="85.28" fill="#F1F1F1" rx="8" ry="8" style="stroke:#181818;stroke-width:0.5;"/><path d="M21.9551,93.28 L21.9551,120.28 M8.9551,101.28 L34.9551,101.28 M21.9551,120.28 L8.9551,135.28 M21.9551,120.28 L34.9551,135.28 " fill="none" style="stroke:#181818;stroke-width:0.5;"/><text fill="#000000" font-family="sans-serif" font-size="14" lengthAdjust="spacing" textLength="31.9102" x="6" y="149.7751">User</text></g><!--entity Host--><g id="elem_Host"><ellipse cx="1401.9544" cy="85.28" fill="#F1F1F1" rx="8" ry="8" style="stroke:#181818;stroke-width:0.5;"/><path d="M1401.9544,93.28 L1401.9544,120.28 M1388.9544,101.28 L1414.9544,101.28 M1401.9544,120.28 L1388.9544,135.28 M1401.9544,120.28 L1414.9544,135.28 " fill="none" style="stroke:#181818;stroke-width:0.5;"/><text fill="#000000" font-family="sans-serif" font-size="14" lengthAdjust="spacing" textLength="88.9287" x="1357.49" y="149.7751">Activity Host</text></g><!--entity System--><g id="elem_System"><ellipse cx="1707.953" cy="85.28" fill="#F1F1F1" rx="8" ry="8" style="stroke:#181818;stroke-width:0.5;"/><path d="M1707.953,93.28 L1707.953,120.28 M1694.953,101.28 L1720.953,101.28 M1707.953,120.28 L1694.953,135.28 M1707.953,120.28 L1720.953,135.28 " fill="none" style="stroke:#181818;stroke-width:0.5;"/><text fill="#000000" font-family="sans-serif" font-size="14" lengthAdjust="spacing" textLength="52.2061" x="1681.85" y="149.7751">System</text></g><g id="elem_Register"><ellipse cx="1268.9584" cy="114.9332" fill="#F1F1F1" rx="53.5484" ry="14.7232" style="stroke:#181818;stroke-width:0.5;"/><text fill="#000000" font-family="sans-serif" font-size="14" lengthAdjust="spacing" textLength="58.2695" x="1236.8236" y="118.6807">Register</text></g><g id="elem_Login"><ellipse cx="1141.9641" cy="114.9257" fill="#F1F1F1" rx="38.4641" ry="14.5557" style="stroke:#181818;stroke-width:0.5;"/><text fill="#000000" font-family="sans-serif" font-size="14" lengthAdjust="spacing" textLength="38.0146" x="1121.09" y="118.3806">Login</text></g><g id="elem_CreateActivity"><ellipse cx="995.9598" cy="114.934" fill="#F1F1F1" rx="72.4698" ry="16.894" style="stroke:#181818;stroke-width:0.5;"/><text fill="#000000" font-family="sans-serif" font-size="14" lengthAdjust="spacing" textLength="99.4287" x="943.2455" y="118.6815">CreateActivity</text></g><g id="elem_JoinActivity"><ellipse cx="823.9556" cy="114.9311" fill="#F1F1F1" rx="64.7556" ry="15.3511" style="stroke:#181818;stroke-width:0.5;"/><text fill="#000000" font-family="sans-serif" font-size="14" lengthAdjust="spacing" textLength="78.0596" x="781.9258" y="118.6787">JoinActivity</text></g><g id="elem_AddPhoto"><ellipse cx="663.96" cy="114.9336" fill="#F1F1F1" rx="60.28" ry="14.7736" style="stroke:#181818;stroke-width:0.5;"/><text fill="#000000" font-family="sans-serif" font-size="14" lengthAdjust="spacing" textLength="67.2861" x="627.3169" y="118.6812">AddPhoto</text></g><g id="elem_DeletePhoto"><ellipse cx="500.96" cy="114.93" fill="#F1F1F1" rx="67.5" ry="15.9" style="stroke:#181818;stroke-width:0.5;"/><text fill="#000000" font-family="sans-serif" font-size="14" lengthAdjust="spacing" textLength="85.9346" x="454.9927" y="118.6776">DeletePhoto</text></g><g id="elem_CommentActivity"><ellipse cx="316.9583" cy="114.9317" fill="#F1F1F1" rx="81.1083" ry="18.6217" style="stroke:#181818;stroke-width:0.5;"/><text fill="#000000" font-family="sans-serif" font-size="14" lengthAdjust="spacing" textLength="121.1943" x="255.105" y="118.189">CommentActivity</text></g><g id="elem_FollowUser"><ellipse cx="136.9581" cy="114.9336" fill="#F1F1F1" rx="64.1681" ry="15.2336" style="stroke:#181818;stroke-width:0.5;"/><text fill="#000000" font-family="sans-serif" font-size="14" lengthAdjust="spacing" textLength="76.3232" x="95.7964" y="118.6812">FollowUser</text></g><g id="elem_EditDeleteActivity"><ellipse cx="1563.9554" cy="114.9331" fill="#F1F1F1" rx="83.0154" ry="19.0031" style="stroke:#181818;stroke-width:0.5;"/><text fill="#000000" font-family="sans-serif" font-size="14" lengthAdjust="spacing" textLength="125.7129" x="1500.5111" y="117.9785">EditDeleteActivity</text></g><g id="elem_HandleLogic"><ellipse cx="2178.9575" cy="114.9295" fill="#F1F1F1" rx="67.5975" ry="15.9195" style="stroke:#181818;stroke-width:0.5;"/><text fill="#000000" font-family="sans-serif" font-size="14" lengthAdjust="spacing" textLength="86.208" x="2132.8535" y="118.6771">HandleLogic</text></g><g id="elem_StoreData"><ellipse cx="2013.9649" cy="114.935" fill="#F1F1F1" rx="62.3249" ry="14.865" style="stroke:#181818;stroke-width:0.5;"/><text fill="#000000" font-family="sans-serif" font-size="14" lengthAdjust="spacing" textLength="70.7383" x="1975.5958" y="118.6825">StoreData</text></g><g id="elem_ManagePhotos"><ellipse cx="1842.9627" cy="114.9345" fill="#F1F1F1" rx="73.7727" ry="17.1545" style="stroke:#181818;stroke-width:0.5;"/><text fill="#000000" font-family="sans-serif" font-size="14" lengthAdjust="spacing" textLength="102.8398" x="1788.5428" y="118.6821">ManagePhotos</text></g><!--link User to Register--><g id="link_User_Register"><path d="M38.38,80.83 C46.63,67.68 57.99,54.07 72.46,46.78 C127.43,19.1 1122.18,26.95 1180.46,46.78 C1211.48,57.34 1235.9715,79.3157 1251.8515,95.9857 " fill="none" id="User-to-Register" style="stroke:#181818;stroke-width:1;"/><polygon fill="#181818" points="1255.99,100.33,1252.6785,91.0545,1252.5413,96.7097,1246.8861,96.5725,1255.99,100.33" style="stroke:#181818;stroke-width:1;"/></g><!--link User to Login--><g id="link_User_Login"><path d="M38.38,80.83 C46.63,67.68 57.99,54.07 72.46,46.78 C121.88,21.89 1016.94,26.58 1068.46,46.78 C1095.99,57.59 1115.741,79.3119 1128.341,95.9019 " fill="none" id="User-to-Login" style="stroke:#181818;stroke-width:1;"/><polygon fill="#181818" points="1131.97,100.68,1129.712,91.0935,1128.9459,96.6982,1123.3411,95.9321,1131.97,100.68" style="stroke:#181818;stroke-width:1;"/></g><!--link User to CreateActivity--><g id="link_User_CreateActivity"><path d="M38.38,80.83 C46.63,67.68 57.99,54.07 72.46,46.78 C153.43,6 801.38,21.51 888.46,46.78 C922.83,56.76 952.1248,77.578 972.3948,94.328 " fill="none" id="User-to-CreateActivity" style="stroke:#181818;stroke-width:1;"/><polygon fill="#181818" points="977.02,98.15,972.6302,89.3335,973.1657,94.965,967.5342,95.5005,977.02,98.15" style="stroke:#181818;stroke-width:1;"/></g><!--link User to JoinActivity--><g id="link_User_JoinActivity"><path d="M38.38,80.83 C46.63,67.68 57.99,54.07 72.46,46.78 C137.16,14.2 655.25,25.36 724.46,46.78 C757.86,57.12 785.5884,78.9252 803.9184,95.6552 " fill="none" id="User-to-JoinActivity" style="stroke:#181818;stroke-width:1;"/><polygon fill="#181818" points="808.35,99.7,804.3991,90.6783,804.657,96.3293,799.006,96.5872,808.35,99.7" style="stroke:#181818;stroke-width:1;"/></g><!--link User to AddPhoto--><g id="link_User_AddPhoto"><path d="M38.38,80.83 C46.63,67.68 57.99,54.07 72.46,46.78 C121.68,21.99 515.97,29.98 568.46,46.78 C601.24,57.28 628.0347,79.4616 645.3947,96.1516 " fill="none" id="User-to-AddPhoto" style="stroke:#181818;stroke-width:1;"/><polygon fill="#181818" points="649.72,100.31,646.0043,91.1889,646.1156,96.8447,640.4598,96.956,649.72,100.31" style="stroke:#181818;stroke-width:1;"/></g><!--link User to DeletePhoto--><g id="link_User_DeletePhoto"><path d="M38.38,80.83 C46.63,67.68 57.99,54.07 72.46,46.78 C137.16,14.2 329.11,25.83 398.46,46.78 C432.21,56.98 460.522,78.3804 479.592,95.1304 " fill="none" id="User-to-DeletePhoto" style="stroke:#181818;stroke-width:1;"/><polygon fill="#181818" points="484.1,99.09,479.9777,90.1453,480.3433,95.7904,474.6983,96.156,484.1,99.09" style="stroke:#181818;stroke-width:1;"/></g><!--link User to CommentActivity--><g id="link_User_CommentActivity"><path d="M38.38,80.83 C46.63,67.68 57.99,54.07 72.46,46.78 C123.66,21 146.15,31.68 201.46,46.78 C236.94,56.47 267.8335,76.542 289.9535,93.262 " fill="none" id="User-to-CommentActivity" style="stroke:#181818;stroke-width:1;"/><polygon fill="#181818" points="294.74,96.88,289.9723,88.2621,290.7513,93.865,285.1483,94.644,294.74,96.88" style="stroke:#181818;stroke-width:1;"/></g><!--link User to FollowUser--><g id="link_User_FollowUser"><path d="M38.13,114.93 C49.58,114.93 55.03,114.93 66.49,114.93 " fill="none" id="User-to-FollowUser" style="stroke:#181818;stroke-width:1;"/><polygon fill="#181818" points="72.49,114.93,63.49,110.93,67.49,114.93,63.49,118.93,72.49,114.93" style="stroke:#181818;stroke-width:1;"/></g><!--link Host to EditDeleteActivity--><g id="link_Host_EditDeleteActivity"><path d="M1446.88,114.93 C1458.16,114.93 1463.45,114.93 1474.73,114.93 " fill="none" id="Host-to-EditDeleteActivity" style="stroke:#181818;stroke-width:1;"/><polygon fill="#181818" points="1480.73,114.93,1471.73,110.93,1475.73,114.93,1471.73,118.93,1480.73,114.93" style="stroke:#181818;stroke-width:1;"/></g><!--link System to HandleLogic--><g id="link_System_HandleLogic"><path d="M1733.01,76.35 C1742.83,64.6 1755.18,53.13 1769.46,46.78 C1831.79,19.07 2011.15,27.05 2076.46,46.78 C2110.21,56.98 2138.522,78.3804 2157.592,95.1304 " fill="none" id="System-to-HandleLogic" style="stroke:#181818;stroke-width:1;"/><polygon fill="#181818" points="2162.1,99.09,2157.9777,90.1453,2158.3433,95.7904,2152.6983,96.156,2162.1,99.09" style="stroke:#181818;stroke-width:1;"/></g><!--link System to StoreData--><g id="link_System_StoreData"><path d="M1733.01,76.35 C1742.83,64.6 1755.18,53.13 1769.46,46.78 C1829.15,20.24 1854.14,27.16 1916.46,46.78 C1949.75,57.26 1977.1942,79.5048 1994.9842,96.1948 " fill="none" id="System-to-StoreData" style="stroke:#181818;stroke-width:1;"/><polygon fill="#181818" points="1999.36,100.3,1995.5332,91.225,1995.7135,96.879,1990.0596,97.0594,1999.36,100.3" style="stroke:#181818;stroke-width:1;"/></g><!--link System to ManagePhotos--><g id="link_System_ManagePhotos"><path d="M1734.32,114.93 C1745.78,114.93 1751.24,114.93 1762.69,114.93 " fill="none" id="System-to-ManagePhotos" style="stroke:#181818;stroke-width:1;"/><polygon fill="#181818" points="1768.69,114.93,1759.69,110.93,1763.69,114.93,1759.69,118.93,1768.69,114.93" style="stroke:#181818;stroke-width:1;"/></g><!--SRC=[RO_12i8m44Jl-OhGapdu2q9fbI8AOl43bcQfWJGBoQBqxsrIfQdqjlE66NQWO_Bo4T0BI6T3WIK4MPGTcvVXCP7YwxPZO1o4Y06vFyZT7Nip8QyMTA7Uk4nN7e7nLvSPPp9k0vTQtvx4bA4QBJB-qug60HrlL9p8Mdf7gKGQ5E5H6vwBbiIy9zaDE6qnFj-jU3ljnXeOLlGA3lhvew0-]--></g></svg>