<svg xmlns="http://www.w3.org/2000/svg" xmlns:xlink="http://www.w3.org/1999/xlink" contentStyleType="text/css" data-diagram-type="CLASS" height="887px" preserveAspectRatio="none" style="width:1208px;height:887px;background:#FFFFFF;" version="1.1" viewBox="0 0 1208 887" width="1208px" zoomAndPan="magnify"><defs/><g><!--class AppUser--><g id="elem_AppUser"><rect codeLine="1" fill="#F1F1F1" height="113.1875" id="AppUser" rx="2.5" ry="2.5" style="stroke:#181818;stroke-width:0.5;" width="172.1797" x="694.8" y="213.49"/><ellipse cx="747.0095" cy="229.49" fill="#ADD1B2" rx="11" ry="11" style="stroke:#181818;stroke-width:1;"/><path d="M749.9782,235.1306 Q749.4001,235.4275 748.7595,235.5681 Q748.1188,235.7244 747.4157,235.7244 Q744.9157,235.7244 743.5876,234.0838 Q742.2751,232.4275 742.2751,229.3025 Q742.2751,226.1775 743.5876,224.5213 Q744.9157,222.865 747.4157,222.865 Q748.1188,222.865 748.7595,223.0213 Q749.4157,223.1775 749.9782,223.4744 L749.9782,226.1931 Q749.3532,225.615 748.7595,225.3494 Q748.1657,225.0681 747.5407,225.0681 Q746.197,225.0681 745.5095,226.1463 Q744.822,227.2088 744.822,229.3025 Q744.822,231.3963 745.5095,232.4744 Q746.197,233.5369 747.5407,233.5369 Q748.1657,233.5369 748.7595,233.2713 Q749.3532,232.99 749.9782,232.4119 L749.9782,235.1306 Z " fill="#000000"/><text fill="#000000" font-family="sans-serif" font-size="14" lengthAdjust="spacing" textLength="59.2607" x="767.5095" y="234.3367">AppUser</text><line style="stroke:#181818;stroke-width:0.5;" x1="695.8" x2="865.9797" y1="245.49" y2="245.49"/><ellipse cx="705.8" cy="259.1384" fill="none" rx="3" ry="3" style="stroke:#038048;stroke-width:1;"/><text fill="#000000" font-family="sans-serif" font-size="14" lengthAdjust="spacing" textLength="35.7178" x="714.8" y="262.4851">int Id</text><ellipse cx="705.8" cy="275.4353" fill="none" rx="3" ry="3" style="stroke:#038048;stroke-width:1;"/><text fill="#000000" font-family="sans-serif" font-size="14" lengthAdjust="spacing" textLength="117.8516" x="714.8" y="278.782">string UserName</text><ellipse cx="705.8" cy="291.7322" fill="none" rx="3" ry="3" style="stroke:#038048;stroke-width:1;"/><text fill="#000000" font-family="sans-serif" font-size="14" lengthAdjust="spacing" textLength="83.4805" x="714.8" y="295.0789">string Email</text><ellipse cx="705.8" cy="308.0291" fill="none" rx="3" ry="3" style="stroke:#038048;stroke-width:1;"/><text fill="#000000" font-family="sans-serif" font-size="14" lengthAdjust="spacing" textLength="146.1797" x="714.8" y="311.3757">string PasswordHash</text><line style="stroke:#181818;stroke-width:0.5;" x1="695.8" x2="865.9797" y1="318.6775" y2="318.6775"/></g><!--class Activity--><g id="elem_Activity"><rect codeLine="8" fill="#F1F1F1" height="113.1875" id="Activity" rx="2.5" ry="2.5" style="stroke:#181818;stroke-width:0.5;" width="166.2666" x="920.75" y="577.56"/><ellipse cx="973.332" cy="593.56" fill="#ADD1B2" rx="11" ry="11" style="stroke:#181818;stroke-width:1;"/><path d="M976.3008,599.2006 Q975.7227,599.4975 975.082,599.6381 Q974.4414,599.7944 973.7383,599.7944 Q971.2383,599.7944 969.9102,598.1538 Q968.5977,596.4975 968.5977,593.3725 Q968.5977,590.2475 969.9102,588.5913 Q971.2383,586.935 973.7383,586.935 Q974.4414,586.935 975.082,587.0913 Q975.7383,587.2475 976.3008,587.5444 L976.3008,590.2631 Q975.6758,589.685 975.082,589.4194 Q974.4883,589.1381 973.8633,589.1381 Q972.5195,589.1381 971.832,590.2163 Q971.1445,591.2788 971.1445,593.3725 Q971.1445,595.4663 971.832,596.5444 Q972.5195,597.6069 973.8633,597.6069 Q974.4883,597.6069 975.082,597.3413 Q975.6758,597.06 976.3008,596.4819 L976.3008,599.2006 Z " fill="#000000"/><text fill="#000000" font-family="sans-serif" font-size="14" lengthAdjust="spacing" textLength="52.6025" x="993.832" y="598.4067">Activity</text><line style="stroke:#181818;stroke-width:0.5;" x1="921.75" x2="1086.0166" y1="609.56" y2="609.56"/><ellipse cx="931.75" cy="623.2084" fill="none" rx="3" ry="3" style="stroke:#038048;stroke-width:1;"/><text fill="#000000" font-family="sans-serif" font-size="14" lengthAdjust="spacing" textLength="35.7178" x="940.75" y="626.5551">int Id</text><ellipse cx="931.75" cy="639.5053" fill="none" rx="3" ry="3" style="stroke:#038048;stroke-width:1;"/><text fill="#000000" font-family="sans-serif" font-size="14" lengthAdjust="spacing" textLength="85.9414" x="940.75" y="642.852">string Name</text><ellipse cx="931.75" cy="655.8022" fill="none" rx="3" ry="3" style="stroke:#038048;stroke-width:1;"/><text fill="#000000" font-family="sans-serif" font-size="14" lengthAdjust="spacing" textLength="140.2666" x="940.75" y="659.1489">DateTime StartDate</text><ellipse cx="931.75" cy="672.0991" fill="none" rx="3" ry="3" style="stroke:#038048;stroke-width:1;"/><text fill="#000000" font-family="sans-serif" font-size="14" lengthAdjust="spacing" textLength="132.6719" x="940.75" y="675.4457">DateTime EndDate</text><line style="stroke:#181818;stroke-width:0.5;" x1="921.75" x2="1086.0166" y1="682.7475" y2="682.7475"/></g><!--class ActivityAttendee--><g id="elem_ActivityAttendee"><rect codeLine="15" fill="#F1F1F1" height="96.8906" id="ActivityAttendee" rx="2.5" ry="2.5" style="stroke:#181818;stroke-width:0.5;" width="148.7578" x="827.51" y="403.67"/><ellipse cx="842.51" cy="419.67" fill="#ADD1B2" rx="11" ry="11" style="stroke:#181818;stroke-width:1;"/><path d="M845.4788,425.3106 Q844.9006,425.6075 844.26,425.7481 Q843.6194,425.9044 842.9163,425.9044 Q840.4163,425.9044 839.0881,424.2638 Q837.7756,422.6075 837.7756,419.4825 Q837.7756,416.3575 839.0881,414.7013 Q840.4163,413.045 842.9163,413.045 Q843.6194,413.045 844.26,413.2013 Q844.9163,413.3575 845.4788,413.6544 L845.4788,416.3731 Q844.8538,415.795 844.26,415.5294 Q843.6663,415.2481 843.0413,415.2481 Q841.6975,415.2481 841.01,416.3263 Q840.3225,417.3888 840.3225,419.4825 Q840.3225,421.5763 841.01,422.6544 Q841.6975,423.7169 843.0413,423.7169 Q843.6663,423.7169 844.26,423.4513 Q844.8538,423.17 845.4788,422.5919 L845.4788,425.3106 Z " fill="#000000"/><text fill="#000000" font-family="sans-serif" font-size="14" lengthAdjust="spacing" textLength="116.7578" x="856.51" y="424.5167">ActivityAttendee</text><line style="stroke:#181818;stroke-width:0.5;" x1="828.51" x2="975.2678" y1="435.67" y2="435.67"/><ellipse cx="838.51" cy="449.3184" fill="none" rx="3" ry="3" style="stroke:#038048;stroke-width:1;"/><text fill="#000000" font-family="sans-serif" font-size="14" lengthAdjust="spacing" textLength="35.7178" x="847.51" y="452.6651">int Id</text><ellipse cx="838.51" cy="465.6153" fill="none" rx="3" ry="3" style="stroke:#038048;stroke-width:1;"/><text fill="#000000" font-family="sans-serif" font-size="14" lengthAdjust="spacing" textLength="95.6211" x="847.51" y="468.962">AppUser User</text><ellipse cx="838.51" cy="481.9122" fill="none" rx="3" ry="3" style="stroke:#038048;stroke-width:1;"/><text fill="#000000" font-family="sans-serif" font-size="14" lengthAdjust="spacing" textLength="109.6553" x="847.51" y="485.2589">Activity Activity</text><line style="stroke:#181818;stroke-width:0.5;" x1="828.51" x2="975.2678" y1="492.5606" y2="492.5606"/></g><!--class Photo--><g id="elem_Photo"><rect codeLine="21" fill="#F1F1F1" height="113.1875" id="Photo" rx="2.5" ry="2.5" style="stroke:#181818;stroke-width:0.5;" width="135.6553" x="520.06" y="767.75"/><ellipse cx="563.7339" cy="783.75" fill="#ADD1B2" rx="11" ry="11" style="stroke:#181818;stroke-width:1;"/><path d="M566.7026,789.3906 Q566.1245,789.6875 565.4839,789.8281 Q564.8433,789.9844 564.1401,789.9844 Q561.6401,789.9844 560.312,788.3438 Q558.9995,786.6875 558.9995,783.5625 Q558.9995,780.4375 560.312,778.7813 Q561.6401,777.125 564.1401,777.125 Q564.8433,777.125 565.4839,777.2813 Q566.1401,777.4375 566.7026,777.7344 L566.7026,780.4531 Q566.0776,779.875 565.4839,779.6094 Q564.8901,779.3281 564.2651,779.3281 Q562.9214,779.3281 562.2339,780.4063 Q561.5464,781.4688 561.5464,783.5625 Q561.5464,785.6563 562.2339,786.7344 Q562.9214,787.7969 564.2651,787.7969 Q564.8901,787.7969 565.4839,787.5313 Q566.0776,787.25 566.7026,786.6719 L566.7026,789.3906 Z " fill="#000000"/><text fill="#000000" font-family="sans-serif" font-size="14" lengthAdjust="spacing" textLength="39.9355" x="584.1058" y="788.5967">Photo</text><line style="stroke:#181818;stroke-width:0.5;" x1="521.06" x2="654.7153" y1="799.75" y2="799.75"/><ellipse cx="531.06" cy="813.3984" fill="none" rx="3" ry="3" style="stroke:#038048;stroke-width:1;"/><text fill="#000000" font-family="sans-serif" font-size="14" lengthAdjust="spacing" textLength="35.7178" x="540.06" y="816.7451">int Id</text><ellipse cx="531.06" cy="829.6953" fill="none" rx="3" ry="3" style="stroke:#038048;stroke-width:1;"/><text fill="#000000" font-family="sans-serif" font-size="14" lengthAdjust="spacing" textLength="64.5313" x="540.06" y="833.042">string Url</text><ellipse cx="531.06" cy="845.9922" fill="none" rx="3" ry="3" style="stroke:#038048;stroke-width:1;"/><text fill="#000000" font-family="sans-serif" font-size="14" lengthAdjust="spacing" textLength="109.6553" x="540.06" y="849.3389">Activity Activity</text><ellipse cx="531.06" cy="862.2891" fill="none" rx="3" ry="3" style="stroke:#038048;stroke-width:1;"/><text fill="#000000" font-family="sans-serif" font-size="14" lengthAdjust="spacing" textLength="95.6211" x="540.06" y="865.6357">AppUser User</text><line style="stroke:#181818;stroke-width:0.5;" x1="521.06" x2="654.7153" y1="872.9375" y2="872.9375"/></g><!--class Comment--><g id="elem_Comment"><rect codeLine="28" fill="#F1F1F1" height="113.1875" id="Comment" rx="2.5" ry="2.5" style="stroke:#181818;stroke-width:0.5;" width="135.6553" x="1038.06" y="767.75"/><ellipse cx="1068.8386" cy="783.75" fill="#ADD1B2" rx="11" ry="11" style="stroke:#181818;stroke-width:1;"/><path d="M1071.8073,789.3906 Q1071.2292,789.6875 1070.5886,789.8281 Q1069.9479,789.9844 1069.2448,789.9844 Q1066.7448,789.9844 1065.4167,788.3438 Q1064.1042,786.6875 1064.1042,783.5625 Q1064.1042,780.4375 1065.4167,778.7813 Q1066.7448,777.125 1069.2448,777.125 Q1069.9479,777.125 1070.5886,777.2813 Q1071.2448,777.4375 1071.8073,777.7344 L1071.8073,780.4531 Q1071.1823,779.875 1070.5886,779.6094 Q1069.9948,779.3281 1069.3698,779.3281 Q1068.0261,779.3281 1067.3386,780.4063 Q1066.6511,781.4688 1066.6511,783.5625 Q1066.6511,785.6563 1067.3386,786.7344 Q1068.0261,787.7969 1069.3698,787.7969 Q1069.9948,787.7969 1070.5886,787.5313 Q1071.1823,787.25 1071.8073,786.6719 L1071.8073,789.3906 Z " fill="#000000"/><text fill="#000000" font-family="sans-serif" font-size="14" lengthAdjust="spacing" textLength="68.5918" x="1086.3449" y="788.5967">Comment</text><line style="stroke:#181818;stroke-width:0.5;" x1="1039.06" x2="1172.7153" y1="799.75" y2="799.75"/><ellipse cx="1049.06" cy="813.3984" fill="none" rx="3" ry="3" style="stroke:#038048;stroke-width:1;"/><text fill="#000000" font-family="sans-serif" font-size="14" lengthAdjust="spacing" textLength="35.7178" x="1058.06" y="816.7451">int Id</text><ellipse cx="1049.06" cy="829.6953" fill="none" rx="3" ry="3" style="stroke:#038048;stroke-width:1;"/><text fill="#000000" font-family="sans-serif" font-size="14" lengthAdjust="spacing" textLength="100.3174" x="1058.06" y="833.042">string Content</text><ellipse cx="1049.06" cy="845.9922" fill="none" rx="3" ry="3" style="stroke:#038048;stroke-width:1;"/><text fill="#000000" font-family="sans-serif" font-size="14" lengthAdjust="spacing" textLength="109.6553" x="1058.06" y="849.3389">Activity Activity</text><ellipse cx="1049.06" cy="862.2891" fill="none" rx="3" ry="3" style="stroke:#038048;stroke-width:1;"/><text fill="#000000" font-family="sans-serif" font-size="14" lengthAdjust="spacing" textLength="95.6211" x="1058.06" y="865.6357">AppUser User</text><line style="stroke:#181818;stroke-width:0.5;" x1="1039.06" x2="1172.7153" y1="872.9375" y2="872.9375"/></g><!--class UserFollowing--><g id="elem_UserFollowing"><rect codeLine="35" fill="#F1F1F1" height="96.8906" id="UserFollowing" rx="2.5" ry="2.5" style="stroke:#181818;stroke-width:0.5;" width="151.624" x="641.08" y="403.67"/><ellipse cx="665.8231" cy="419.67" fill="#ADD1B2" rx="11" ry="11" style="stroke:#181818;stroke-width:1;"/><path d="M668.7919,425.3106 Q668.2137,425.6075 667.5731,425.7481 Q666.9325,425.9044 666.2294,425.9044 Q663.7294,425.9044 662.4012,424.2638 Q661.0887,422.6075 661.0887,419.4825 Q661.0887,416.3575 662.4012,414.7013 Q663.7294,413.045 666.2294,413.045 Q666.9325,413.045 667.5731,413.2013 Q668.2294,413.3575 668.7919,413.6544 L668.7919,416.3731 Q668.1669,415.795 667.5731,415.5294 Q666.9794,415.2481 666.3544,415.2481 Q665.0106,415.2481 664.3231,416.3263 Q663.6356,417.3888 663.6356,419.4825 Q663.6356,421.5763 664.3231,422.6544 Q665.0106,423.7169 666.3544,423.7169 Q666.9794,423.7169 667.5731,423.4513 Q668.1669,423.17 668.7919,422.5919 L668.7919,425.3106 Z " fill="#000000"/><text fill="#000000" font-family="sans-serif" font-size="14" lengthAdjust="spacing" textLength="97.9727" x="681.9883" y="424.5167">UserFollowing</text><line style="stroke:#181818;stroke-width:0.5;" x1="642.08" x2="791.704" y1="435.67" y2="435.67"/><ellipse cx="652.08" cy="449.3184" fill="none" rx="3" ry="3" style="stroke:#038048;stroke-width:1;"/><text fill="#000000" font-family="sans-serif" font-size="14" lengthAdjust="spacing" textLength="35.7178" x="661.08" y="452.6651">int Id</text><ellipse cx="652.08" cy="465.6153" fill="none" rx="3" ry="3" style="stroke:#038048;stroke-width:1;"/><text fill="#000000" font-family="sans-serif" font-size="14" lengthAdjust="spacing" textLength="122.4932" x="661.08" y="468.962">AppUser Follower</text><ellipse cx="652.08" cy="481.9122" fill="none" rx="3" ry="3" style="stroke:#038048;stroke-width:1;"/><text fill="#000000" font-family="sans-serif" font-size="14" lengthAdjust="spacing" textLength="125.624" x="661.08" y="485.2589">AppUser Followed</text><line style="stroke:#181818;stroke-width:0.5;" x1="642.08" x2="791.704" y1="492.5606" y2="492.5606"/></g><!--class DataContext--><g id="elem_DataContext"><rect codeLine="41" fill="#F1F1F1" height="129.4844" id="DataContext" rx="2.5" ry="2.5" style="stroke:#181818;stroke-width:0.5;" width="337.377" x="769.2" y="7"/><ellipse cx="889.3792" cy="23" fill="#ADD1B2" rx="11" ry="11" style="stroke:#181818;stroke-width:1;"/><path d="M892.3479,28.6406 Q891.7698,28.9375 891.1292,29.0781 Q890.4886,29.2344 889.7854,29.2344 Q887.2854,29.2344 885.9573,27.5938 Q884.6448,25.9375 884.6448,22.8125 Q884.6448,19.6875 885.9573,18.0313 Q887.2854,16.375 889.7854,16.375 Q890.4886,16.375 891.1292,16.5313 Q891.7854,16.6875 892.3479,16.9844 L892.3479,19.7031 Q891.7229,19.125 891.1292,18.8594 Q890.5354,18.5781 889.9104,18.5781 Q888.5667,18.5781 887.8792,19.6563 Q887.1917,20.7188 887.1917,22.8125 Q887.1917,24.9063 887.8792,25.9844 Q888.5667,27.0469 889.9104,27.0469 Q890.5354,27.0469 891.1292,26.7813 Q891.7229,26.5 892.3479,25.9219 L892.3479,28.6406 Z " fill="#000000"/><text fill="#000000" font-family="sans-serif" font-size="14" lengthAdjust="spacing" textLength="88.5186" x="909.8792" y="27.8467">DataContext</text><line style="stroke:#181818;stroke-width:0.5;" x1="770.2" x2="1105.577" y1="39" y2="39"/><ellipse cx="780.2" cy="52.6484" fill="none" rx="3" ry="3" style="stroke:#038048;stroke-width:1;"/><text fill="#000000" font-family="sans-serif" font-size="14" lengthAdjust="spacing" textLength="169.0322" x="789.2" y="55.9951">DbSet&lt;AppUser&gt; Users</text><ellipse cx="780.2" cy="68.9453" fill="none" rx="3" ry="3" style="stroke:#038048;stroke-width:1;"/><text fill="#000000" font-family="sans-serif" font-size="14" lengthAdjust="spacing" textLength="187.2842" x="789.2" y="72.292">DbSet&lt;Activity&gt; Activities</text><ellipse cx="780.2" cy="85.2422" fill="none" rx="3" ry="3" style="stroke:#038048;stroke-width:1;"/><text fill="#000000" font-family="sans-serif" font-size="14" lengthAdjust="spacing" textLength="311.377" x="789.2" y="88.5889">DbSet&lt;ActivityAttendee&gt; ActivityAttendees</text><ellipse cx="780.2" cy="101.5391" fill="none" rx="3" ry="3" style="stroke:#038048;stroke-width:1;"/><text fill="#000000" font-family="sans-serif" font-size="14" lengthAdjust="spacing" textLength="157.7324" x="789.2" y="104.8857">DbSet&lt;Photo&gt; Photos</text><ellipse cx="780.2" cy="117.8359" fill="none" rx="3" ry="3" style="stroke:#038048;stroke-width:1;"/><text fill="#000000" font-family="sans-serif" font-size="14" lengthAdjust="spacing" textLength="215.0449" x="789.2" y="121.1826">DbSet&lt;Comment&gt; Comments</text><line style="stroke:#181818;stroke-width:0.5;" x1="770.2" x2="1105.577" y1="128.4844" y2="128.4844"/></g><!--class Seed--><g id="elem_Seed"><rect codeLine="49" fill="#F1F1F1" height="64.2969" id="Seed" rx="2.5" ry="2.5" style="stroke:#181818;stroke-width:0.5;" width="163.0195" x="132.38" y="39.6"/><ellipse cx="192.1398" cy="55.6" fill="#ADD1B2" rx="11" ry="11" style="stroke:#181818;stroke-width:1;"/><path d="M195.1085,61.2406 Q194.5304,61.5375 193.8898,61.6781 Q193.2491,61.8344 192.546,61.8344 Q190.046,61.8344 188.7179,60.1938 Q187.4054,58.5375 187.4054,55.4125 Q187.4054,52.2875 188.7179,50.6313 Q190.046,48.975 192.546,48.975 Q193.2491,48.975 193.8898,49.1313 Q194.546,49.2875 195.1085,49.5844 L195.1085,52.3031 Q194.4835,51.725 193.8898,51.4594 Q193.296,51.1781 192.671,51.1781 Q191.3273,51.1781 190.6398,52.2563 Q189.9523,53.3188 189.9523,55.4125 Q189.9523,57.5063 190.6398,58.5844 Q191.3273,59.6469 192.671,59.6469 Q193.296,59.6469 193.8898,59.3813 Q194.4835,59.1 195.1085,58.5219 L195.1085,61.2406 Z " fill="#000000"/><text fill="#000000" font-family="sans-serif" font-size="14" lengthAdjust="spacing" textLength="35" x="212.6398" y="60.4467">Seed</text><line style="stroke:#181818;stroke-width:0.5;" x1="133.38" x2="294.3995" y1="71.6" y2="71.6"/><line style="stroke:#181818;stroke-width:0.5;" x1="133.38" x2="294.3995" y1="79.6" y2="79.6"/><ellipse cx="143.38" cy="93.2484" fill="#84BE84" rx="3" ry="3" style="stroke:#038048;stroke-width:1;"/><text fill="#000000" font-family="sans-serif" font-size="14" lengthAdjust="spacing" textLength="137.0195" x="152.38" y="96.5951">void InitializeData()</text></g><!--class PhotoAccessor--><g id="elem_PhotoAccessor"><rect codeLine="53" fill="#F1F1F1" height="80.5938" id="PhotoAccessor" rx="2.5" ry="2.5" style="stroke:#181818;stroke-width:0.5;" width="244.4766" x="330.65" y="31.45"/><ellipse cx="397.4234" cy="47.45" fill="#ADD1B2" rx="11" ry="11" style="stroke:#181818;stroke-width:1;"/><path d="M400.3922,53.0906 Q399.8141,53.3875 399.1734,53.5281 Q398.5328,53.6844 397.8297,53.6844 Q395.3297,53.6844 394.0016,52.0438 Q392.6891,50.3875 392.6891,47.2625 Q392.6891,44.1375 394.0016,42.4813 Q395.3297,40.825 397.8297,40.825 Q398.5328,40.825 399.1734,40.9813 Q399.8297,41.1375 400.3922,41.4344 L400.3922,44.1531 Q399.7672,43.575 399.1734,43.3094 Q398.5797,43.0281 397.9547,43.0281 Q396.6109,43.0281 395.9234,44.1063 Q395.2359,45.1688 395.2359,47.2625 Q395.2359,49.3563 395.9234,50.4344 Q396.6109,51.4969 397.9547,51.4969 Q398.5797,51.4969 399.1734,51.2313 Q399.7672,50.95 400.3922,50.3719 L400.3922,53.0906 Z " fill="#000000"/><text fill="#000000" font-family="sans-serif" font-size="14" lengthAdjust="spacing" textLength="102.4297" x="417.9234" y="52.2967">PhotoAccessor</text><line style="stroke:#181818;stroke-width:0.5;" x1="331.65" x2="574.1266" y1="63.45" y2="63.45"/><line style="stroke:#181818;stroke-width:0.5;" x1="331.65" x2="574.1266" y1="71.45" y2="71.45"/><ellipse cx="341.65" cy="85.0984" fill="#84BE84" rx="3" ry="3" style="stroke:#038048;stroke-width:1;"/><text fill="#000000" font-family="sans-serif" font-size="14" lengthAdjust="spacing" textLength="197.0527" x="350.65" y="88.4451">void AddPhoto(Photo photo)</text><ellipse cx="341.65" cy="101.3953" fill="#84BE84" rx="3" ry="3" style="stroke:#038048;stroke-width:1;"/><text fill="#000000" font-family="sans-serif" font-size="14" lengthAdjust="spacing" textLength="218.4766" x="350.65" y="104.742">void RemovePhoto(int photoId)</text></g><!--class UserAccessor--><g id="elem_UserAccessor"><rect codeLine="58" fill="#F1F1F1" height="64.2969" id="UserAccessor" rx="2.5" ry="2.5" style="stroke:#181818;stroke-width:0.5;" width="413.7754" x="7" y="237.93"/><ellipse cx="162.4355" cy="253.93" fill="#ADD1B2" rx="11" ry="11" style="stroke:#181818;stroke-width:1;"/><path d="M165.4043,259.5706 Q164.8262,259.8675 164.1855,260.0081 Q163.5449,260.1644 162.8418,260.1644 Q160.3418,260.1644 159.0137,258.5238 Q157.7012,256.8675 157.7012,253.7425 Q157.7012,250.6175 159.0137,248.9613 Q160.3418,247.305 162.8418,247.305 Q163.5449,247.305 164.1855,247.4613 Q164.8418,247.6175 165.4043,247.9144 L165.4043,250.6331 Q164.7793,250.055 164.1855,249.7894 Q163.5918,249.5081 162.9668,249.5081 Q161.623,249.5081 160.9355,250.5863 Q160.248,251.6488 160.248,253.7425 Q160.248,255.8363 160.9355,256.9144 Q161.623,257.9769 162.9668,257.9769 Q163.5918,257.9769 164.1855,257.7113 Q164.7793,257.43 165.4043,256.8519 L165.4043,259.5706 Z " fill="#000000"/><text fill="#000000" font-family="sans-serif" font-size="14" lengthAdjust="spacing" textLength="94.4043" x="182.9355" y="258.7767">UserAccessor</text><line style="stroke:#181818;stroke-width:0.5;" x1="8" x2="419.7754" y1="269.93" y2="269.93"/><line style="stroke:#181818;stroke-width:0.5;" x1="8" x2="419.7754" y1="277.93" y2="277.93"/><ellipse cx="18" cy="291.5784" fill="#84BE84" rx="3" ry="3" style="stroke:#038048;stroke-width:1;"/><text fill="#000000" font-family="sans-serif" font-size="14" lengthAdjust="spacing" textLength="387.7754" x="27" y="294.9251">string GetUserNameFromContext(HttpContext context)</text></g><!--link AppUser to ActivityAttendee--><g id="link_AppUser_ActivityAttendee"><path codeLine="62" d="M768.92,327.12 C768.2,342.99 770.15,359.73 777.89,373.67 C784.07,384.83 799.3419,396.1119 821.8919,409.4119 " fill="none" id="AppUser-to-ActivityAttendee" style="stroke:#181818;stroke-width:1;"/><polygon fill="#181818" points="827.06,412.46,821.34,404.4424,822.7533,409.9199,817.2758,411.3332,827.06,412.46" style="stroke:#181818;stroke-width:1;"/><text fill="#000000" font-family="sans-serif" font-size="13" lengthAdjust="spacing" textLength="22.9785" x="778.89" y="369.7369">has</text><text fill="#000000" font-family="sans-serif" font-size="13" lengthAdjust="spacing" textLength="8.271" x="759.0892" y="346.6566">1</text><text fill="#000000" font-family="sans-serif" font-size="13" lengthAdjust="spacing" textLength="23.0356" x="800.7807" y="402.849">0..*</text></g><!--link ActivityAttendee to AppUser--><g id="link_ActivityAttendee_AppUser"><path codeLine="64" d="M863.5,403.46 C856.11,393.77 848.59,383.52 841.89,373.67 C831.8,358.86 824.6228,347.4994 815.4928,332.1194 " fill="none" id="ActivityAttendee-to-AppUser" style="stroke:#181818;stroke-width:1;"/><polygon fill="#181818" points="812.43,326.96,813.5845,336.741,814.9823,331.2595,820.4638,332.6573,812.43,326.96" style="stroke:#181818;stroke-width:1;"/><text fill="#000000" font-family="sans-serif" font-size="13" lengthAdjust="spacing" textLength="68.2627" x="842.89" y="369.7369">belongs to</text><text fill="#000000" font-family="sans-serif" font-size="13" lengthAdjust="spacing" textLength="8.271" x="849.5581" y="392.6394">1</text><text fill="#000000" font-family="sans-serif" font-size="13" lengthAdjust="spacing" textLength="8.271" x="807.803" y="346.8808">1</text></g><!--link Activity to ActivityAttendee--><g id="link_Activity_ActivityAttendee"><path codeLine="63" d="M987.05,577.31 C981.33,561.7 974.23,545.05 965.89,530.56 C960.05,520.44 956.5916,515.0321 949.1916,505.5921 " fill="none" id="Activity-to-ActivityAttendee" style="stroke:#181818;stroke-width:1;"/><polygon fill="#181818" points="945.49,500.87,947.8944,510.4209,948.5747,504.8051,954.1905,505.4854,945.49,500.87" style="stroke:#181818;stroke-width:1;"/><text fill="#000000" font-family="sans-serif" font-size="13" lengthAdjust="spacing" textLength="22.9785" x="974.89" y="543.6269">has</text><text fill="#000000" font-family="sans-serif" font-size="13" lengthAdjust="spacing" textLength="8.271" x="976.5275" y="566.5431">1</text><text fill="#000000" font-family="sans-serif" font-size="13" lengthAdjust="spacing" textLength="23.0356" x="926.806" y="520.505">0..*</text></g><!--link ActivityAttendee to Activity--><g id="link_ActivityAttendee_Activity"><path codeLine="65" d="M865.21,500.77 C857.86,516.09 854.62,532.88 862.89,547.56 C875.81,570.52 892.4449,585.0555 915.1349,598.0655 " fill="none" id="ActivityAttendee-to-Activity" style="stroke:#181818;stroke-width:1;"/><polygon fill="#181818" points="920.34,601.05,914.522,593.1032,916.0024,598.5629,910.5427,600.0433,920.34,601.05" style="stroke:#181818;stroke-width:1;"/><text fill="#000000" font-family="sans-serif" font-size="13" lengthAdjust="spacing" textLength="93.1011" x="863.89" y="543.6269">participates in</text><text fill="#000000" font-family="sans-serif" font-size="13" lengthAdjust="spacing" textLength="8.271" x="851.5086" y="520.743">1</text><text fill="#000000" font-family="sans-serif" font-size="13" lengthAdjust="spacing" textLength="8.271" x="904.5552" y="594.5065">1</text></g><!--link Activity to Comment--><g id="link_Activity_Comment"><path codeLine="66" d="M1034.21,691.11 C1047.25,715.16 1059.601,737.9449 1072.641,762.0049 " fill="none" id="Activity-to-Comment" style="stroke:#181818;stroke-width:1;"/><polygon fill="#181818" points="1075.5,767.28,1074.7283,757.4614,1073.1175,762.8841,1067.6948,761.2734,1075.5,767.28" style="stroke:#181818;stroke-width:1;"/><text fill="#000000" font-family="sans-serif" font-size="13" lengthAdjust="spacing" textLength="22.9785" x="1058.89" y="733.8169">has</text><text fill="#000000" font-family="sans-serif" font-size="13" lengthAdjust="spacing" textLength="8.271" x="1029.2697" y="710.6373">1</text><text fill="#000000" font-family="sans-serif" font-size="13" lengthAdjust="spacing" textLength="23.0356" x="1047.3971" y="756.4863">0..*</text></g><!--link AppUser to UserFollowing--><g id="link_AppUser_UserFollowing"><path codeLine="67" d="M709.57,327.12 C702.01,336.16 695.44,346.07 690.89,356.67 C684.52,371.52 684.6131,382.6513 689.5631,397.9513 " fill="none" id="AppUser-to-UserFollowing" style="stroke:#181818;stroke-width:1;"/><polygon fill="#181818" points="691.41,403.66,692.4454,393.8657,689.8709,398.9028,684.8338,396.3283,691.41,403.66" style="stroke:#181818;stroke-width:1;"/><text fill="#000000" font-family="sans-serif" font-size="13" lengthAdjust="spacing" textLength="45.1128" x="691.89" y="369.7369">follows</text><text fill="#000000" font-family="sans-serif" font-size="13" lengthAdjust="spacing" textLength="8.271" x="692.8768" y="346.6566">1</text><text fill="#000000" font-family="sans-serif" font-size="13" lengthAdjust="spacing" textLength="23.0356" x="662.9809" y="392.5182">0..*</text></g><!--link Activity to Photo--><g id="link_Activity_Photo"><path codeLine="68" d="M920.7,672.79 C843.05,707.92 734.0368,757.2374 661.6068,789.9974 " fill="none" id="Activity-to-Photo" style="stroke:#181818;stroke-width:1;"/><polygon fill="#181818" points="656.14,792.47,665.9886,792.4056,660.6957,790.4095,662.6918,785.1165,656.14,792.47" style="stroke:#181818;stroke-width:1;"/><text fill="#000000" font-family="sans-serif" font-size="13" lengthAdjust="spacing" textLength="22.9785" x="809.89" y="733.8169">has</text><text fill="#000000" font-family="sans-serif" font-size="13" lengthAdjust="spacing" textLength="8.271" x="904.4033" y="672.8309">1</text><text fill="#000000" font-family="sans-serif" font-size="13" lengthAdjust="spacing" textLength="23.0356" x="663.7431" y="785.7904">0..*</text></g><!--link AppUser to Photo--><g id="link_AppUser_Photo"><path codeLine="69" d="M694.48,324.13 C667.28,345.37 640.12,372.31 623.89,403.67 C562.89,521.55 569.6188,677.2777 579.0888,761.3977 " fill="none" id="AppUser-to-Photo" style="stroke:#181818;stroke-width:1;"/><polygon fill="#181818" points="579.76,767.36,582.7281,757.969,579.2006,762.3914,574.7783,758.864,579.76,767.36" style="stroke:#181818;stroke-width:1;"/><text fill="#000000" font-family="sans-serif" font-size="13" lengthAdjust="spacing" textLength="51.0479" x="584.89" y="543.6269">uploads</text><text fill="#000000" font-family="sans-serif" font-size="13" lengthAdjust="spacing" textLength="8.271" x="678.4399" y="325.3483">1</text><text fill="#000000" font-family="sans-serif" font-size="13" lengthAdjust="spacing" textLength="23.0356" x="554.3701" y="756.576">0..*</text></g><!--link DataContext to AppUser--><g id="link_DataContext_AppUser"><path codeLine="70" d="M875.99,136.94 C867.32,146.64 858.71,156.68 850.89,166.49 C839.19,181.15 830.7391,192.742 820.2091,208.192 " fill="none" id="DataContext-to-AppUser" style="stroke:#181818;stroke-width:1;"/><polygon fill="#181818" points="816.83,213.15,825.204,207.9658,819.6459,209.0184,818.5934,203.4603,816.83,213.15" style="stroke:#181818;stroke-width:1;"/><text fill="#000000" font-family="sans-serif" font-size="13" lengthAdjust="spacing" textLength="59.8584" x="851.89" y="179.5569">manages</text><text fill="#000000" font-family="sans-serif" font-size="13" lengthAdjust="spacing" textLength="8.271" x="861.2082" y="156.5107">1</text><text fill="#000000" font-family="sans-serif" font-size="13" lengthAdjust="spacing" textLength="6.5" x="814.8751" y="202.3721">*</text></g><!--link DataContext to Activity--><g id="link_DataContext_Activity"><path codeLine="71" d="M971.89,136.86 C982.64,160.31 993.19,187.47 998.89,213.49 C1026.86,341.25 1018.6302,490.2072 1010.8802,571.3872 " fill="none" id="DataContext-to-Activity" style="stroke:#181818;stroke-width:1;"/><polygon fill="#181818" points="1010.31,577.36,1015.1472,568.7809,1010.7852,572.3826,1007.1834,568.0206,1010.31,577.36" style="stroke:#181818;stroke-width:1;"/><text fill="#000000" font-family="sans-serif" font-size="13" lengthAdjust="spacing" textLength="59.8584" x="1017.89" y="369.7369">manages</text><text fill="#000000" font-family="sans-serif" font-size="13" lengthAdjust="spacing" textLength="8.271" x="966.9979" y="156.4225">1</text><text fill="#000000" font-family="sans-serif" font-size="13" lengthAdjust="spacing" textLength="6.5" x="1004.7581" y="566.5992">*</text></g><!--link DataContext to ActivityAttendee--><g id="link_DataContext_ActivityAttendee"><path codeLine="72" d="M935.17,136.93 C932.11,197.99 926.18,292.34 915.89,373.67 C914.67,383.3 914.0775,387.6286 912.3775,397.4086 " fill="none" id="DataContext-to-ActivityAttendee" style="stroke:#181818;stroke-width:1;"/><polygon fill="#181818" points="911.35,403.32,916.8322,395.138,912.2063,398.3939,908.9504,393.7679,911.35,403.32" style="stroke:#181818;stroke-width:1;"/><text fill="#000000" font-family="sans-serif" font-size="13" lengthAdjust="spacing" textLength="59.8584" x="930.89" y="274.6469">manages</text><text fill="#000000" font-family="sans-serif" font-size="13" lengthAdjust="spacing" textLength="8.271" x="926.4911" y="156.4997">1</text><text fill="#000000" font-family="sans-serif" font-size="13" lengthAdjust="spacing" textLength="6.5" x="906.2937" y="392.4797">*</text></g><!--link DataContext to Photo--><g id="link_DataContext_Photo"><path codeLine="73" d="M768.73,111.15 C636.12,146.32 473.89,202.88 473.89,269.08 C473.89,269.08 473.89,269.08 473.89,635.16 C473.89,684.82 499.4661,727.9464 528.3961,762.9264 " fill="none" id="DataContext-to-Photo" style="stroke:#181818;stroke-width:1;"/><polygon fill="#181818" points="532.22,767.55,529.5665,758.0653,529.0334,763.697,523.4017,763.1639,532.22,767.55" style="stroke:#181818;stroke-width:1;"/><text fill="#000000" font-family="sans-serif" font-size="13" lengthAdjust="spacing" textLength="59.8584" x="474.89" y="456.6869">manages</text><text fill="#000000" font-family="sans-serif" font-size="13" lengthAdjust="spacing" textLength="8.271" x="752.8899" y="109.6657">1</text><text fill="#000000" font-family="sans-serif" font-size="13" lengthAdjust="spacing" textLength="6.5" x="519.1004" y="756.7892">*</text></g><!--link DataContext to Comment--><g id="link_DataContext_Comment"><path codeLine="74" d="M1057.14,136.79 C1100.88,169.48 1139.89,214.06 1139.89,269.08 C1139.89,269.08 1139.89,269.08 1139.89,635.16 C1139.89,680.15 1131.7657,724.397 1122.8057,761.577 " fill="none" id="DataContext-to-Comment" style="stroke:#181818;stroke-width:1;"/><polygon fill="#181818" points="1121.4,767.41,1127.3972,759.5976,1122.5714,762.5492,1119.6199,757.7234,1121.4,767.41" style="stroke:#181818;stroke-width:1;"/><text fill="#000000" font-family="sans-serif" font-size="13" lengthAdjust="spacing" textLength="59.8584" x="1140.89" y="456.6869">manages</text><text fill="#000000" font-family="sans-serif" font-size="13" lengthAdjust="spacing" textLength="8.271" x="1061.0393" y="156.3452">1</text><text fill="#000000" font-family="sans-serif" font-size="13" lengthAdjust="spacing" textLength="6.5" x="1116.9554" y="756.6321">*</text></g><!--SRC=[bLF9Ri8m4BtdAwoSW0hKNgCgKiHIk5Iej1zWuYbOSkmeTg6B-k-D7Jjn885oIUnPthnvCquPbX8bUVuceK0_0K9tb2kq8leaLK7v3cdNCyx0CyqpJ9btNvSeHr6G9PRxu3S8qWesLVH0rLSFhiESOGMlD0EqKRXG-jQopZanjZFOH2dW1E0KtdMZF-RkQBX30xNU2oNwsYvOT_PfYHfjAh8CIfXklAdW9Lzr8wQ-BGHZugWnUZgj0cotRHjfe4eLiI7nQIdEjXjGZpOXDgMaPxVSOiUIGeVN3I4-6uiNR6IEAxKzizKhTiB9Xki6W5Ga3u8IjE9bUSpeD-Wc1iEJ2IPf2bAAmij8236kGJNYN7-7jVS5Cd60Aa3BQTmhCcphteQrOtm2vHx4eX2P5NImL2ftugRLtw2vSOGF8HgFOnJUJoQZy7o78xJ7CgWNuxRmsbodbNzNEK9RO8Bl95BYIeQh7g6yV8aqfNdvy2IYl9UOMtdBfxlPzWv7wDsS-xkjHdOHqeLyv4nW8WD_j-lGaIz2XZdUmON8fld_XdhJk9RY-5wBQ_IqaNy0]--></g></svg>